<svg xmlns="http://www.w3.org/2000/svg" xmlns:xlink="http://www.w3.org/1999/xlink"><defs>
<linearGradient id="paint0_linear" x1="19.774" y1="3.00672e-05" x2="105.785" y2="10.6444" gradientUnits="userSpaceOnUse">
<stop stop-color="#ED0233"/>
<stop offset="1" stop-color="#003EB7"/>
</linearGradient>
<linearGradient id="paint1_linear" x1="14" y1="49.52" x2="54.1858" y2="9.18415" gradientUnits="userSpaceOnUse">
<stop stop-color="#003D85"/>
<stop offset="0.885417" stop-color="#B80027"/>
</linearGradient>
</defs><symbol id="icon-fb" viewBox="0 0 12 24">
<path d="M11.5481 0.0049936L8.66986 0C5.43624 0 3.34653 2.31828 3.34653 5.90643V8.62969H0.452578C0.202506 8.62969 0 8.84891 0 9.11932V13.065C0 13.3354 0.202736 13.5544 0.452578 13.5544H3.34653V23.5106C3.34653 23.781 3.54904 24 3.79911 24H7.5749C7.82497 24 8.02748 23.7808 8.02748 23.5106V13.5544H11.4112C11.6613 13.5544 11.8638 13.3354 11.8638 13.065L11.8652 9.11932C11.8652 8.98948 11.8174 8.86514 11.7326 8.77326C11.6479 8.68138 11.5324 8.62969 11.4123 8.62969H8.02748V6.32115C8.02748 5.21157 8.27201 4.64829 9.60873 4.64829L11.5477 4.64755C11.7975 4.64755 12 4.42833 12 4.15817V0.494367C12 0.224462 11.7977 0.00549296 11.5481 0.0049936Z" fill="white"/>
</symbol><symbol id="icon-insta" viewBox="0 0 24 24">
<path d="M17.5034 0H6.49658C2.91431 0 0 2.91431 0 6.49658V17.5036C0 21.0857 2.91431 24 6.49658 24H17.5036C21.0857 24 24 21.0857 24 17.5036V6.49658C24 2.91431 21.0857 0 17.5034 0V0ZM12 18.5623C8.38147 18.5623 5.43768 15.6185 5.43768 12C5.43768 8.38147 8.38147 5.43768 12 5.43768C15.6185 5.43768 18.5623 8.38147 18.5623 12C18.5623 15.6185 15.6185 18.5623 12 18.5623ZM18.7192 6.98529C17.6499 6.98529 16.7802 6.11554 16.7802 5.0462C16.7802 3.97687 17.6499 3.10693 18.7192 3.10693C19.7886 3.10693 20.6585 3.97687 20.6585 5.0462C20.6585 6.11554 19.7886 6.98529 18.7192 6.98529Z" fill="white"/>
<path d="M12.0001 6.84448C9.15753 6.84448 6.84473 9.1571 6.84473 11.9998C6.84473 14.8423 9.15753 17.1552 12.0001 17.1552C14.8428 17.1552 17.1554 14.8423 17.1554 11.9998C17.1554 9.1571 14.8428 6.84448 12.0001 6.84448Z" fill="white"/>
<path d="M18.7186 4.51392C18.4253 4.51392 18.1865 4.75269 18.1865 5.04602C18.1865 5.33936 18.4253 5.57812 18.7186 5.57812C19.0121 5.57812 19.2509 5.33954 19.2509 5.04602C19.2509 4.7525 19.0121 4.51392 18.7186 4.51392Z" fill="white"/>
</symbol><symbol id="icon-logo" viewBox="0 0 87 20">
<path d="M0.676 5.168C0.676 3.69467 1.02267 2.568 1.716 1.788C2.42667 0.990666 3.484 0.592 4.888 0.592C6.292 0.592 7.34067 0.990666 8.034 1.788C8.74467 2.568 9.1 3.69467 9.1 5.168V5.74H6.396V4.986C6.396 4.32733 6.266 3.868 6.006 3.608C5.76333 3.33067 5.41667 3.192 4.966 3.192C4.51533 3.192 4.16 3.33067 3.9 3.608C3.65733 3.868 3.536 4.32733 3.536 4.986C3.536 5.61 3.67467 6.16467 3.952 6.65C4.22933 7.118 4.576 7.56867 4.992 8.002C5.408 8.418 5.85 8.84267 6.318 9.276C6.80333 9.692 7.254 10.1513 7.67 10.654C8.086 11.1567 8.43267 11.7287 8.71 12.37C8.98733 13.0113 9.126 13.7653 9.126 14.632C9.126 16.1053 8.762 17.2407 8.034 18.038C7.32333 18.818 6.266 19.208 4.862 19.208C3.458 19.208 2.392 18.818 1.664 18.038C0.953333 17.2407 0.598 16.1053 0.598 14.632V13.514H3.302V14.814C3.302 15.4727 3.432 15.932 3.692 16.192C3.96933 16.452 4.33333 16.582 4.784 16.582C5.23467 16.582 5.59 16.452 5.85 16.192C6.12733 15.932 6.266 15.4727 6.266 14.814C6.266 14.19 6.12733 13.644 5.85 13.176C5.57267 12.6907 5.226 12.24 4.81 11.824C4.394 11.3907 3.94333 10.966 3.458 10.55C2.99 10.1167 2.548 9.64867 2.132 9.146C1.716 8.64333 1.36933 8.07133 1.092 7.43C0.814667 6.78867 0.676 6.03467 0.676 5.168ZM14.0146 0.799999V14.84C14.0146 15.4987 14.1446 15.958 14.4046 16.218C14.6819 16.478 15.0459 16.608 15.4966 16.608C15.9473 16.608 16.3026 16.478 16.5626 16.218C16.8399 15.958 16.9786 15.4987 16.9786 14.84V0.799999H19.6826V14.658C19.6826 16.1313 19.3186 17.2667 18.5906 18.064C17.8799 18.844 16.8226 19.234 15.4186 19.234C14.0146 19.234 12.9486 18.844 12.2206 18.064C11.5099 17.2667 11.1546 16.1313 11.1546 14.658V0.799999H14.0146ZM26.376 0.799999C27.8147 0.799999 28.8807 1.18133 29.574 1.944C30.2847 2.70667 30.64 3.82467 30.64 5.298V7.664C30.64 9.13733 30.2847 10.2553 29.574 11.018C28.8807 11.7807 27.8147 12.162 26.376 12.162H25.024V19H22.164V0.799999H26.376ZM25.024 3.4V9.562H26.376C26.8267 9.562 27.1733 9.44067 27.416 9.198C27.6587 8.95533 27.78 8.50467 27.78 7.846V5.116C27.78 4.45733 27.6587 4.00667 27.416 3.764C27.1733 3.52133 26.8267 3.4 26.376 3.4H25.024ZM35.3448 8.47H39.2708V11.07H35.3448V16.4H40.2848V19H32.4848V0.799999H40.2848V3.4H35.3448V8.47ZM48.557 19C48.5224 18.8787 48.4877 18.766 48.453 18.662C48.4184 18.558 48.3837 18.428 48.349 18.272C48.3317 18.116 48.3144 17.9167 48.297 17.674C48.297 17.4313 48.297 17.128 48.297 16.764V13.904C48.297 13.0547 48.1497 12.4567 47.855 12.11C47.5604 11.7633 47.0837 11.59 46.425 11.59H45.437V19H42.577V0.799999H46.893C48.3837 0.799999 49.4584 1.14667 50.117 1.84C50.793 2.53333 51.131 3.582 51.131 4.986V6.416C51.131 8.288 50.507 9.51867 49.259 10.108C49.987 10.4027 50.481 10.888 50.741 11.564C51.0184 12.2227 51.157 13.0287 51.157 13.982V16.79C51.157 17.2407 51.1744 17.6393 51.209 17.986C51.2437 18.3153 51.3304 18.6533 51.469 19H48.557ZM45.437 3.4V8.99H46.555C47.0924 8.99 47.5084 8.85133 47.803 8.574C48.115 8.29667 48.271 7.794 48.271 7.066V5.272C48.271 4.61333 48.1497 4.13667 47.907 3.842C47.6817 3.54733 47.3177 3.4 46.815 3.4H45.437ZM57.848 8.86H61.852V14.632C61.852 16.1053 61.488 17.2407 60.76 18.038C60.0493 18.818 58.992 19.208 57.588 19.208C56.184 19.208 55.118 18.818 54.39 18.038C53.6793 17.2407 53.324 16.1053 53.324 14.632V5.168C53.324 3.69467 53.6793 2.568 54.39 1.788C55.118 0.990666 56.184 0.592 57.588 0.592C58.992 0.592 60.0493 0.990666 60.76 1.788C61.488 2.568 61.852 3.69467 61.852 5.168V6.936H59.148V4.986C59.148 4.32733 59.0093 3.868 58.732 3.608C58.472 3.33067 58.1166 3.192 57.666 3.192C57.2153 3.192 56.8513 3.33067 56.574 3.608C56.314 3.868 56.184 4.32733 56.184 4.986V14.814C56.184 15.4727 56.314 15.932 56.574 16.192C56.8513 16.452 57.2153 16.582 57.666 16.582C58.1166 16.582 58.472 16.452 58.732 16.192C59.0093 15.932 59.148 15.4727 59.148 14.814V11.46H57.848V8.86ZM66.506 12.968L62.892 0.799999H65.882L68.066 9.094L70.25 0.799999H72.98L69.366 12.968V19H66.506V12.968ZM80.7146 13.722L82.6646 0.799999H86.6426V19H83.9386V5.948L81.9626 19H79.2586L77.1266 6.13V19H74.6306V0.799999H78.6086L80.7146 13.722Z" fill="white"/>
</symbol><symbol id="icon-play" viewBox="0 0 100 100">
<circle cx="50" cy="50" r="49" stroke="url(#paint0_linear)" stroke-opacity="0.2" stroke-width="2"/>
<circle cx="50" cy="50" r="36" fill="url(#paint1_linear)"/>
<path d="M59 49.5L46.25 56.8612L46.25 42.1388L59 49.5Z" fill="white"/>

</symbol><symbol id="icon-vk" viewBox="0 0 24 13">
<path fill-rule="evenodd" clip-rule="evenodd" d="M20.6554 8.26599C21.4515 9.00996 22.2918 9.70992 23.0058 10.5289C23.3212 10.8929 23.6199 11.2684 23.8483 11.6908C24.172 12.2912 23.8788 12.9519 23.3163 12.9878L19.82 12.9863C18.9182 13.0579 18.1988 12.7104 17.5939 12.1203C17.1098 11.6483 16.6615 11.146 16.1961 10.6581C16.0052 10.4587 15.8055 10.2711 15.5669 10.1228C15.0896 9.82623 14.6753 9.91703 14.4025 10.3935C14.1247 10.8781 14.0617 11.4148 14.0344 11.9549C13.997 12.7429 13.7481 12.9501 12.9211 12.9862C11.1537 13.066 9.47629 12.81 7.91806 11.9566C6.54426 11.2043 5.47894 10.1422 4.5517 8.93977C2.74634 6.59842 1.36379 4.02567 0.121208 1.38084C-0.158487 0.784951 0.0460603 0.465084 0.732957 0.453762C1.87358 0.432554 3.01405 0.434063 4.15601 0.452253C4.61959 0.458744 4.92649 0.713249 5.10549 1.13244C5.7226 2.58483 6.47771 3.96665 7.42553 5.24748C7.67794 5.58848 7.93532 5.92948 8.30184 6.16949C8.7073 6.43524 9.01602 6.34716 9.20677 5.91484C9.32781 5.64071 9.3808 5.34544 9.40808 5.05184C9.49845 4.04175 9.51035 3.03338 9.35186 2.02684C9.25455 1.39865 8.88488 0.991982 8.23 0.873108C7.89582 0.8125 7.94558 0.693475 8.10738 0.510898C8.38842 0.196012 8.65274 0 9.17964 0H13.1311C13.7532 0.117516 13.8913 0.385004 13.9765 0.984133L13.9799 5.18536C13.9731 5.4173 14.1009 6.10556 14.5374 6.25908C14.8867 6.36837 15.117 6.10088 15.3265 5.88887C16.2726 4.92776 16.9479 3.79192 17.5511 2.61578C17.8188 2.09861 18.049 1.56153 18.2721 1.02489C18.4373 0.626678 18.6967 0.430742 19.1653 0.439422L22.9684 0.442667C23.0811 0.442667 23.1952 0.444252 23.3044 0.46214C23.9453 0.566675 24.1209 0.830539 23.923 1.42952C23.6111 2.36927 23.0043 3.15241 22.411 3.93917C21.7768 4.77915 21.0985 5.59036 20.4696 6.43532C19.8917 7.20691 19.9376 7.59584 20.6554 8.26599Z" fill="white"/>
</symbol></svg>